<?xml version="1.0" encoding="utf-8"?>

<!DOCTYPE svg PUBLIC "-//W3C//DTD SVG 1.1//EN" "http://www.w3.org/Graphics/SVG/1.1/DTD/svg11.dtd">
<!-- Uploaded to: SVG Repo, www.svgrepo.com, Generator: SVG Repo Mixer Tools -->
<svg height="800px" width="800px" version="1.1" id="_x32_" xmlns="http://www.w3.org/2000/svg" xmlns:xlink="http://www.w3.org/1999/xlink" 
	 viewBox="0 0 512 512"  xml:space="preserve">
<style type="text/css">
	.st0{fill:#000000;}
</style>
<g>
	<path class="st0" d="M256,0C114.54,0,0,114.54,0,256c0,141.379,114.54,255.919,256,256c15.282,0,30.306-1.403,44.846-3.96
		c-12.638-7.847-23.782-17.838-33.032-29.403c-3.887,0.249-7.847,0.33-11.814,0.33c-61.686-0.081-117.259-24.935-157.726-65.322
		C57.895,373.266,33.032,317.605,33.032,256c0-61.685,24.862-117.266,65.241-157.726C138.741,57.887,194.314,33.032,256,33.032
		c61.604,0,117.185,24.855,157.653,65.242c40.378,40.46,65.234,96.04,65.314,157.726c0,14.621-1.484,28.903-4.129,42.693
		c9.58,14.952,16.604,30.726,20.976,46.912C506.306,317.685,512,287.548,512,256C511.919,114.54,397.379,0,256,0z"/>
	<path class="st0" d="M412.701,268.621c-19.314-15.452-26.854-32.484-29.758-44.621c-2.33-9.717-1.105-10.774-1.105-10.774
		c-0.096-1.153-0.831-2.153-1.879-2.637c-1.064-0.508-2.29-0.396-3.242,0.266c0,0-3.742,0.807-9.838,6.726
		c-13.887,13.467-29.572,35.967-19.242,66.701c11.121,32.976,5.234,39.887-0.572,39.444c-7.532-0.589-8.694-5.226-7.492-19.686
		c1.403-16.887-13.92-31.323-13.92-31.323s-23.815,37.855-42.37,64.928c-10.968,15.992-16.226,36.338-16.226,54.887h-0.371
		c0,57.08,46.266,103.347,103.339,103.347c57.072,0,103.322-46.267,103.322-103.347C477.282,342.976,450.354,298.75,412.701,268.621
		z M370.209,466.782c-31.492,0-57.008-25.524-57.008-57.008c0-10.71,2.968-20.75,8.097-29.306
		c4.435,16.492,19.484,28.621,37.363,28.621c21.371,0,38.693-17.315,38.693-38.661c0-4.09-0.645-8.024-1.814-11.71
		c18.758,9.322,31.661,28.67,31.661,51.056C427.201,441.258,401.693,466.782,370.209,466.782z"/>
	<path class="st0" d="M285.491,269.605l-4.217-144.71c0-8-6.492-14.475-14.476-14.475c-7.992,0-14.468,6.476-14.468,14.475
		l-3.677,126.396l-92.79,1.952c-9.033,0-16.347,7.33-16.347,16.363c0,9.032,7.314,16.354,16.347,16.354l110.936,2.331
		C277.121,288.291,285.491,279.928,285.491,269.605z"/>
</g>
</svg>